<mxfile host="Electron" modified="2023-10-02T09:49:12.187Z" agent="Mozilla/5.0 (Windows NT 10.0; Win64; x64) AppleWebKit/537.36 (KHTML, like Gecko) draw.io/21.7.5 Chrome/114.0.5735.289 Electron/25.8.1 Safari/537.36" etag="Nnz3OaAuosXDYXFr-pCn" version="21.7.5" type="device">
  <diagram name="Page-1" id="8psk3hjjIU3Cq9CaVUHn">
    <mxGraphModel dx="836" dy="538" grid="1" gridSize="10" guides="1" tooltips="1" connect="1" arrows="1" fold="1" page="1" pageScale="1" pageWidth="850" pageHeight="1100" math="0" shadow="0">
      <root>
        <mxCell id="0" />
        <mxCell id="1" parent="0" />
        <mxCell id="qZ-dROPiLrWp8dCkMwXe-10" value="" style="edgeStyle=orthogonalEdgeStyle;rounded=0;orthogonalLoop=1;jettySize=auto;html=1;" edge="1" parent="1" source="qZ-dROPiLrWp8dCkMwXe-1" target="qZ-dROPiLrWp8dCkMwXe-2">
          <mxGeometry relative="1" as="geometry" />
        </mxCell>
        <mxCell id="qZ-dROPiLrWp8dCkMwXe-1" value="start" style="ellipse;whiteSpace=wrap;html=1;" vertex="1" parent="1">
          <mxGeometry x="260" y="170" width="100" height="50" as="geometry" />
        </mxCell>
        <mxCell id="qZ-dROPiLrWp8dCkMwXe-11" value="" style="edgeStyle=orthogonalEdgeStyle;rounded=0;orthogonalLoop=1;jettySize=auto;html=1;" edge="1" parent="1" source="qZ-dROPiLrWp8dCkMwXe-2" target="qZ-dROPiLrWp8dCkMwXe-3">
          <mxGeometry relative="1" as="geometry" />
        </mxCell>
        <mxCell id="qZ-dROPiLrWp8dCkMwXe-2" value="string username, input_username, string password, input_password&amp;nbsp;" style="shape=hexagon;perimeter=hexagonPerimeter2;whiteSpace=wrap;html=1;fixedSize=1;" vertex="1" parent="1">
          <mxGeometry x="237.5" y="250" width="145" height="70" as="geometry" />
        </mxCell>
        <mxCell id="qZ-dROPiLrWp8dCkMwXe-12" value="" style="edgeStyle=orthogonalEdgeStyle;rounded=0;orthogonalLoop=1;jettySize=auto;html=1;" edge="1" parent="1" source="qZ-dROPiLrWp8dCkMwXe-3" target="qZ-dROPiLrWp8dCkMwXe-4">
          <mxGeometry relative="1" as="geometry" />
        </mxCell>
        <mxCell id="qZ-dROPiLrWp8dCkMwXe-3" value="input_username&lt;br&gt;input_password" style="shape=parallelogram;perimeter=parallelogramPerimeter;whiteSpace=wrap;html=1;fixedSize=1;" vertex="1" parent="1">
          <mxGeometry x="250" y="350" width="120" height="60" as="geometry" />
        </mxCell>
        <mxCell id="qZ-dROPiLrWp8dCkMwXe-13" value="" style="edgeStyle=orthogonalEdgeStyle;rounded=0;orthogonalLoop=1;jettySize=auto;html=1;" edge="1" parent="1" source="qZ-dROPiLrWp8dCkMwXe-4" target="qZ-dROPiLrWp8dCkMwXe-5">
          <mxGeometry relative="1" as="geometry" />
        </mxCell>
        <mxCell id="qZ-dROPiLrWp8dCkMwXe-16" value="" style="edgeStyle=orthogonalEdgeStyle;rounded=0;orthogonalLoop=1;jettySize=auto;html=1;" edge="1" parent="1" source="qZ-dROPiLrWp8dCkMwXe-4" target="qZ-dROPiLrWp8dCkMwXe-6">
          <mxGeometry relative="1" as="geometry" />
        </mxCell>
        <mxCell id="qZ-dROPiLrWp8dCkMwXe-4" value="&lt;span style=&quot;color: rgb(0, 0, 0); font-family: Helvetica; font-size: 12px; font-style: normal; font-variant-ligatures: normal; font-variant-caps: normal; font-weight: 400; letter-spacing: normal; orphans: 2; text-align: center; text-indent: 0px; text-transform: none; widows: 2; word-spacing: 0px; -webkit-text-stroke-width: 0px; background-color: rgb(251, 251, 251); text-decoration-thickness: initial; text-decoration-style: initial; text-decoration-color: initial; float: none; display: inline !important;&quot;&gt;input_username = username&amp;nbsp;&lt;/span&gt;" style="rhombus;whiteSpace=wrap;html=1;" vertex="1" parent="1">
          <mxGeometry x="180" y="440" width="260" height="100" as="geometry" />
        </mxCell>
        <mxCell id="qZ-dROPiLrWp8dCkMwXe-14" value="" style="edgeStyle=orthogonalEdgeStyle;rounded=0;orthogonalLoop=1;jettySize=auto;html=1;" edge="1" parent="1" source="qZ-dROPiLrWp8dCkMwXe-5" target="qZ-dROPiLrWp8dCkMwXe-8">
          <mxGeometry relative="1" as="geometry" />
        </mxCell>
        <mxCell id="qZ-dROPiLrWp8dCkMwXe-17" value="" style="edgeStyle=orthogonalEdgeStyle;rounded=0;orthogonalLoop=1;jettySize=auto;html=1;" edge="1" parent="1" source="qZ-dROPiLrWp8dCkMwXe-5" target="qZ-dROPiLrWp8dCkMwXe-7">
          <mxGeometry relative="1" as="geometry" />
        </mxCell>
        <mxCell id="qZ-dROPiLrWp8dCkMwXe-5" value="input_password = password" style="rhombus;whiteSpace=wrap;html=1;" vertex="1" parent="1">
          <mxGeometry x="210" y="570" width="200" height="90" as="geometry" />
        </mxCell>
        <mxCell id="qZ-dROPiLrWp8dCkMwXe-6" value="&quot;Login Gagal, Username tidak ditemukan&quot;" style="shape=parallelogram;perimeter=parallelogramPerimeter;whiteSpace=wrap;html=1;fixedSize=1;" vertex="1" parent="1">
          <mxGeometry x="490" y="460" width="120" height="60" as="geometry" />
        </mxCell>
        <mxCell id="qZ-dROPiLrWp8dCkMwXe-7" value="&quot;Login Gagal, Password salah&quot;" style="shape=parallelogram;perimeter=parallelogramPerimeter;whiteSpace=wrap;html=1;fixedSize=1;" vertex="1" parent="1">
          <mxGeometry x="60" y="585" width="120" height="60" as="geometry" />
        </mxCell>
        <mxCell id="qZ-dROPiLrWp8dCkMwXe-15" value="" style="edgeStyle=orthogonalEdgeStyle;rounded=0;orthogonalLoop=1;jettySize=auto;html=1;" edge="1" parent="1" source="qZ-dROPiLrWp8dCkMwXe-8" target="qZ-dROPiLrWp8dCkMwXe-9">
          <mxGeometry relative="1" as="geometry" />
        </mxCell>
        <mxCell id="qZ-dROPiLrWp8dCkMwXe-8" value="&quot;sukses login&quot;" style="shape=parallelogram;perimeter=parallelogramPerimeter;whiteSpace=wrap;html=1;fixedSize=1;" vertex="1" parent="1">
          <mxGeometry x="250" y="690" width="120" height="60" as="geometry" />
        </mxCell>
        <mxCell id="qZ-dROPiLrWp8dCkMwXe-9" value="end" style="ellipse;whiteSpace=wrap;html=1;" vertex="1" parent="1">
          <mxGeometry x="250" y="790" width="120" height="80" as="geometry" />
        </mxCell>
        <mxCell id="qZ-dROPiLrWp8dCkMwXe-18" value="" style="endArrow=classic;html=1;rounded=0;entryX=1;entryY=0.5;entryDx=0;entryDy=0;exitX=0.5;exitY=1;exitDx=0;exitDy=0;" edge="1" parent="1" source="qZ-dROPiLrWp8dCkMwXe-6" target="qZ-dROPiLrWp8dCkMwXe-9">
          <mxGeometry width="50" height="50" relative="1" as="geometry">
            <mxPoint x="545" y="645" as="sourcePoint" />
            <mxPoint x="495" y="705" as="targetPoint" />
            <Array as="points">
              <mxPoint x="545" y="830" />
            </Array>
          </mxGeometry>
        </mxCell>
        <mxCell id="qZ-dROPiLrWp8dCkMwXe-22" value="" style="endArrow=classic;html=1;rounded=0;entryX=0;entryY=0.5;entryDx=0;entryDy=0;" edge="1" parent="1" target="qZ-dROPiLrWp8dCkMwXe-9">
          <mxGeometry width="50" height="50" relative="1" as="geometry">
            <mxPoint x="120" y="645" as="sourcePoint" />
            <mxPoint x="120" y="735" as="targetPoint" />
            <Array as="points">
              <mxPoint x="120" y="830" />
            </Array>
          </mxGeometry>
        </mxCell>
      </root>
    </mxGraphModel>
  </diagram>
</mxfile>
